<?xml version="1.0" encoding="UTF-8" ?>
<svg version="1.1" width="64" height="64" xmlns="http://www.w3.org/2000/svg" shape-rendering="crispEdges">
<rect x="31" y="28" width="1" height="1" fill="#000000" />
<rect x="32" y="28" width="1" height="1" fill="#000000" />
<rect x="30" y="29" width="1" height="1" fill="#000000" />
<rect x="31" y="29" width="1" height="1" fill="#FFFFFF" />
<rect x="32" y="29" width="1" height="1" fill="#FFFFFF" />
<rect x="33" y="29" width="1" height="1" fill="#000000" />
<rect x="29" y="30" width="1" height="1" fill="#000000" />
<rect x="30" y="30" width="1" height="1" fill="#FFFFFF" />
<rect x="31" y="30" width="1" height="1" fill="#FFFFFF" />
<rect x="32" y="30" width="1" height="1" fill="#FFFFFF" />
<rect x="33" y="30" width="1" height="1" fill="#FFFFFF" />
<rect x="34" y="30" width="1" height="1" fill="#000000" />
<rect x="28" y="31" width="1" height="1" fill="#000000" />
<rect x="29" y="31" width="1" height="1" fill="#FFFFFF" />
<rect x="30" y="31" width="1" height="1" fill="#FFFFFF" />
<rect x="31" y="31" width="1" height="1" fill="#FFFFFF" />
<rect x="32" y="31" width="1" height="1" fill="#FFFFFF" />
<rect x="33" y="31" width="1" height="1" fill="#FFFFFF" />
<rect x="34" y="31" width="1" height="1" fill="#FFFFFF" />
<rect x="35" y="31" width="1" height="1" fill="#000000" />
<rect x="28" y="32" width="1" height="1" fill="#000000" />
<rect x="29" y="32" width="1" height="1" fill="#FFFFFF" />
<rect x="30" y="32" width="1" height="1" fill="#FFFFFF" />
<rect x="31" y="32" width="1" height="1" fill="#FFFFFF" />
<rect x="32" y="32" width="1" height="1" fill="#FFFFFF" />
<rect x="33" y="32" width="1" height="1" fill="#FFFFFF" />
<rect x="34" y="32" width="1" height="1" fill="#FFFFFF" />
<rect x="35" y="32" width="1" height="1" fill="#000000" />
<rect x="29" y="33" width="1" height="1" fill="#000000" />
<rect x="30" y="33" width="1" height="1" fill="#FFFFFF" />
<rect x="31" y="33" width="1" height="1" fill="#FFFFFF" />
<rect x="32" y="33" width="1" height="1" fill="#FFFFFF" />
<rect x="33" y="33" width="1" height="1" fill="#FFFFFF" />
<rect x="34" y="33" width="1" height="1" fill="#000000" />
<rect x="30" y="34" width="1" height="1" fill="#000000" />
<rect x="31" y="34" width="1" height="1" fill="#FFFFFF" />
<rect x="32" y="34" width="1" height="1" fill="#FFFFFF" />
<rect x="33" y="34" width="1" height="1" fill="#000000" />
<rect x="31" y="35" width="1" height="1" fill="#000000" />
<rect x="32" y="35" width="1" height="1" fill="#000000" />
</svg>